<svg width="100%" height="auto" version="1.1" xmlns="http://www.w3.org/2000/svg" viewBox="0 0 800 800">
  <defs>
    <radialGradient paintOrder="fill" gradientUnits="userSpaceOnUse" cx="400" cy="440" r="400" id="gradient-1" spreadMethod="pad">
      <stop offset="0.7" stop-color="#e1e1e1"/>
      <stop offset="1" stop-color="#c0c0c0"/>
    </radialGradient>
  </defs>
<path fill="url(#gradient-1)" stroke="none" d="M 80.717 754.635 C 80.796 752.635 80.215 693.353 80.215 691.353 C 82.95 676.721 104.377 656.782 108 651.71 C 138 609.71 148.059 583.554 143.498 537 C 142 521.71 120 475.71 108.498 446 C 103.671 433.531 104.08 411.621 108.498 399 C 117 374.71 105 375.71 105 353.71 C 105 331.71 134 303.71 138 289.71 C 143.148 271.69 138.729 261.124 143.498 243 C 145.619 234.941 180.764 183.531 187.886 178.146 C 197.586 170.81 208.958 166.199 219 159.71 C 220.679 158.626 236.41 142.68 245.755 134.503 C 261.755 120.503 278.077 118.691 278.077 114.691 C 278.077 92.691 307 68.71 317 58.71 C 332.158 43.552 376.821 26.749 388.658 28.722 C 400.658 30.722 428.318 47.948 435.561 50.194 C 446.443 53.569 455.732 50.289 471.074 56.237 C 484.156 61.309 494.223 74.363 503.918 80.888 C 514.542 88.038 564.723 99.741 574.11 109.053 C 592.16 126.959 608.539 152.031 619.237 175.096 C 624.354 186.125 621.437 203.107 623.013 215.162 C 625.02 230.513 628.843 243.963 629.37 259.436 C 629.826 272.804 622.852 296.369 624.059 300.726 C 661.561 313.166 683.675 331.51 698 369.71 C 704 385.71 712 475.561 726 511.71 C 728 523.71 717.207 585.296 706 607.71 C 702 615.71 678 617.71 674 623.71 C 670 629.71 667.409 646.596 664 651.71 C 660 657.71 643.539 665.404 639.498 672 C 636 677.71 636.502 690.42 634 697.71 C 631.544 704.867 612.477 716.756 610 721.71 C 608 725.71 594 749.71 588 759.71 C 584 759.71 334 765.71 332 765.71 C 332 763.71 328 757.71 328 755.71 C 326 755.71 82.717 754.635 80.717 754.635 Z"/>
<path fill="none" stroke="#121212" stroke-width="10" stroke-linejoin="round" d="M 80.717 754.635 C 80.796 752.635 80.215 693.353 80.215 691.353 C 82.95 676.721 104.377 656.782 108 651.71 C 138 609.71 148.059 583.554 143.498 537 C 142 521.71 120 475.71 108.498 446 C 103.671 433.531 104.08 411.621 108.498 399 C 117 374.71 105 375.71 105 353.71 C 105 331.71 134 303.71 138 289.71 C 143.148 271.69 138.729 261.124 143.498 243 C 145.619 234.941 180.764 183.531 187.886 178.146 C 197.586 170.81 208.958 166.199 219 159.71 C 220.679 158.626 236.41 142.68 245.755 134.503 C 261.755 120.503 278.077 118.691 278.077 114.691 C 278.077 92.691 307 68.71 317 58.71 C 332.158 43.552 376.821 26.749 388.658 28.722 C 400.658 30.722 428.318 47.948 435.561 50.194 C 446.443 53.569 455.732 50.289 471.074 56.237 C 484.156 61.309 494.223 74.363 503.918 80.888 C 514.542 88.038 564.723 99.741 574.11 109.053 C 592.16 126.959 608.539 152.031 619.237 175.096 C 624.354 186.125 621.437 203.107 623.013 215.162 C 625.02 230.513 628.843 243.963 629.37 259.436 C 629.826 272.804 622.852 296.369 624.059 300.726 C 661.561 313.166 682.5 331.971 698 369.71 C 704 385.71 712 445.71 726 511.71 C 728 523.71 717.207 585.296 706 607.71 C 702 615.71 678 617.71 674 623.71 C 670 629.71 667.409 646.596 664 651.71 C 660 657.71 643.539 665.404 639.498 672 C 636 677.71 636.502 690.42 634 697.71 C 631.544 704.867 612.477 716.756 610 721.71 C 608 725.71 594 749.71 588 759.71 C 584 759.71 334 765.71 332 765.71 C 332 763.71 328 757.71 328 755.71 C 326 755.71 82.717 754.635 80.717 754.635 Z"/>
<path fill="#121212" stroke="#121212" stroke-width="1" stroke-linejoin="round" d="M 549.1 345.005 C 546.641 348.627 528.318 375.549 523.609 378.725 C 514 385.206 510.916 384.793 506.248 387.85 C 501.784 390.773 499.007 394.967 500.806 401.063 C 504.508 408.892 512.55 416.763 515.981 410.937 C 525.042 398.731 533.464 398.898 535.536 395.557 C 537.824 391.868 545.307 373.475 555.232 365.427 C 561.801 360.1 572.826 356.352 573.963 354.765 C 575.799 352.199 583.953 338.951 580.377 336.716 C 576.938 334.567 571.079 330.239 567.031 332.113 C 558.914 335.871 550.482 342.97 549.1 345.005 Z"/>
<path fill="none" stroke="#121212" stroke-width="22" d="M 112 729.71 C 112 727.71 110 707.71 112.498 699.661 C 116.094 688.073 127.841 680.805 134.498 670.661 C 160.174 631.536 180.51 589.114 175.498 541 C 171.68 504.342 153.269 475.236 141.39 440.27 C 138.548 431.905 135.164 420.432 137.371 412.873 C 139.295 406.284 145.953 397.702 148 389.71 C 150.045 381.725 138 363.71 138 357.71 C 138 343.028 161.953 319.364 168.796 306.375 C 176.935 290.925 171.099 258.602 176.463 247.7 C 180.685 239.121 199.14 213.409 205.727 208.106 C 216.671 199.295 234.181 189.023 243.694 182.264 C 246.152 180.518 268.38 158.281 274.953 152.991 C 284 145.71 304.206 142.043 307.423 136.223 C 311.973 127.993 312.241 108.645 315.306 106.28 C 331.066 85.703 348.234 73.504 351.907 70.998 C 355.575 68.495 384.043 58.944 387.701 59.799 C 391.494 60.686 424.156 81.791 427.034 82.304 C 430.414 82.906 457.312 83.691 460.802 84.028 C 463.297 84.269 479.95 105.6 483.115 109.684 C 484.236 111.13 494.915 110.221 502.492 112.976 C 506.479 114.426 522.567 122.227 526.262 124.311 C 529.97 126.402 546.391 129.98 553.921 134.033 C 563.596 139.242 585.79 179.674 587.383 184.391 C 588.875 188.806 589.752 205.017 589.872 204.283 C 589.992 203.551 586.145 210.737 586.93 215.588 C 587.767 220.767 590.849 225.854 591.429 227.418 C 591.859 228.573 595.203 253.79 595.429 259.418 C 595.612 263.971 587.041 318.231 585.839 323.113 C 584.898 326.939 581.791 329.467 577.268 334.851 C 550.961 356.438 576.369 341.652 580.498 340 C 593.665 334.732 592.789 331.607 610.498 331 C 622.455 330.59 645.292 343.371 653.842 352.991 C 658.794 358.563 671.461 386.96 672.286 392.795 C 679.2 441.714 688.294 479.346 695.396 513.636 C 698.334 527.827 684.187 582.74 682.237 586.603 C 680.847 589.354 650.531 598.225 644.899 601.954 C 642.06 603.834 638.626 631.231 635.768 634.505 C 632.481 638.269 612.82 649.551 611.463 652.991 C 609.56 657.818 605.024 680.056 604.498 683 C 603.997 685.808 587.672 695.074 582.388 703.445 C 576.492 712.788 572 725.71 568.169 733.336 C 559.867 733.066 352.96 738.085 350 737.71 C 350 735.71 350 731.71 350 729.71 C 348 729.71 114 729.71 112 729.71 Z"/>
<path fill="#121212" fill-rule="evenodd" stroke="none" d="M 137.498 707 L 144.498 699 L 156.498 691 L 166.498 668 L 182.498 646 L 196.498 614 L 203.498 569 L 203.498 540 L 201.498 515 L 191.498 486 L 173.498 445 L 165.498 425 L 165.498 418 L 178.498 402 L 175.498 374 L 168.498 358 L 190.498 329 L 199.498 311 L 201.498 298 L 199.498 265 L 207.498 256 L 210.498 255 L 218.498 232 L 238.498 217 L 247.498 221 L 263.498 214 L 265.498 203 L 280.498 183 L 283.498 183 L 287.498 187 L 284.498 203 L 276.498 219 L 277.498 245 L 294.498 242 L 305.498 216 L 305.498 178 L 323.498 159 L 335.498 156 L 347.498 155 L 349.498 154 L 358.498 153 L 362.498 150 L 358.498 146 L 355.498 146 L 350.498 142 L 344.498 141 L 340.498 135 L 339.498 120 L 361.498 102 L 358.498 98 L 360.498 93 L 378.498 93 L 383.498 88 L 418.498 109 L 447.498 110 L 464.498 133 L 489.498 137 L 504.498 150 L 515.498 149 L 528.498 159 L 538.498 156 L 560.498 191 L 560.498 202 L 544.498 206 L 545.498 221 L 562.498 234 L 566.498 258 L 562.498 287 L 558.498 316 L 543.498 330 L 537.498 328 L 533.498 334 L 526.498 357 L 519.498 364 L 511.498 370 L 496.498 371 L 484.498 394 L 485.517 407.641 L 493.216 418.622 L 513.498 427.612 L 530.419 415.426 L 542.498 412 L 562.498 377 L 591.498 368 L 602.498 359 L 608.498 359 L 629.498 369 L 643.498 395 L 649.498 429 L 654.498 462 L 662.498 499 L 667.498 518 L 661.498 557 L 649.498 575 L 642.498 577 L 630.477 575.696 L 616.142 586.702 L 611.498 618 L 596.498 622 L 589.498 625 L 582.498 636 L 575.498 659 L 575.498 670 L 562.498 682 L 556.498 685 L 544.498 713 L 506.498 711 L 376.498 716 L 376.498 707 L 137.498 707 Z M 221.498 392 L 249.498 413 L 242.498 421 C 240.498 423 240.498 423 241.498 428 C 246.498 433 250.498 439 265.498 446 C 273.498 446 273.498 446 279.498 445 C 282.498 443 284.498 442 285.498 438 C 286.498 435 284.498 429 282.498 424 C 278.498 413 269.498 403 270.498 392 C 271.498 389 271.498 385 276.498 382 C 284.498 375 294.498 374 300.498 373 C 308.498 371 315.498 372 318.498 372 C 319.498 372 333.498 373 347.498 383 L 373.498 401 C 390.498 415 392.498 419 393.498 424 C 395.498 429 390.498 433 389.498 434 L 369.498 446 L 339.498 424 C 342.498 423 348.498 421 349.498 418 C 349.498 415 345.498 411 332.498 401 C 326.498 398 323.498 397 319.498 398 C 316.498 399 315.498 398 311.498 401 C 310.498 401 309.498 403 310.498 406 L 326.498 438 C 327.498 441 332.498 451 320.498 460 C 304.498 467 301.498 468 285.498 471 C 281.498 472 268.498 472 259.498 469 C 243.498 464 225.498 453 211.498 438 C 202.498 426 198.498 425 202.498 413 C 209.498 406 213.498 402 221.498 397 L 221.498 392 Z M 284.498 496 L 429.498 453 L 429.498 446 L 467.498 475 L 416.498 489 L 447.498 510 L 497.498 495 L 528.498 519 L 377.498 563 L 345.498 541 L 409.498 521 L 379.498 500 L 314.498 519 L 284.498 496 Z M 406.498 582 L 550.498 540 L 548.498 533 L 588.498 562 L 468.498 595 L 514.498 628 L 483.498 638 L 406.498 582 Z M 191.498 486 L 173.498 445 L 544.498 713 L 506.498 711 L 191.498 486 Z M 210.498 255 L 218.498 232 L 661.498 557 L 649.498 575 L 210.498 255 Z"/>
</svg>
