<svg width="100%" height="auto" version="1.1" xmlns="http://www.w3.org/2000/svg" viewBox="0 0 800 800">
    <path fill="#121212" stroke="none" d="M 0 0 L 0 800 L 800 800 L 800 0 Z" />
    <path fill="#ffffff" stroke="none" d="M 0 194 L 0 243 L 800 243 L 800 196 L 0 194 Z M 100 444 L 96 459 C 94 468 109 473 128 471 C 138 470 155 463 161 456 C 167 444 169 440 166 433 C 164 428 154 421 146 416 C 127 404 103 399 92 382 C 90 376 86 370 88 358 C 94 341 102 324 111 315 C 123 302 127 298 140 289 C 153 281 172 276 195 275 C 208 274 236 275 255 277 C 271 279 286 283 295 288 C 302 292 310 304 304 318 L 289 352 L 230 352 L 237 332 C 238 325 225 326 194 326 C 188 326 177 330 171 335 C 167 338 164 342 163 346 C 162 350 162 354 167 358 L 227 387 C 232 391 245 399 242 427 C 241 447 224 472 211 488 C 202 501 174 514 161 518 C 146 523 72 523 50 517 C 31 512 28 486 31 475 L 38 455 L 30 444 L 100 444 Z M 230 522 L 397 289 L 384 280 L 481 280 L 414 364 L 481 364 L 546 280 L 621 280 L 453 522 L 369 522 L 444 420 L 379 420 L 304 522 L 230 522 Z M 500 522 L 674 288 L 662 280 L 751 280 L 621 457 L 714 457 L 676 522 L 500 522 Z M 0 556 L 800 556 L 800 606 L 0 606 L 0 556 Z" />
</svg>
  